<svg width="25" height="25" viewBox="0 0 25 25" fill="none" xmlns="http://www.w3.org/2000/svg">
<rect width="25" height="25" rx="2.69292" fill="white"/>
<path d="M4.94792 1.95312C3.72541 1.95312 2.73438 2.94416 2.73438 4.16667C2.73438 5.38917 3.72541 6.38021 4.94792 6.38021C6.17042 6.38021 7.16146 5.38917 7.16146 4.16667C7.16146 2.94416 6.17042 1.95312 4.94792 1.95312Z" fill="#0F1624"/>
<path d="M2.86458 8.20312C2.79267 8.20312 2.73438 8.26142 2.73438 8.33333V21.875C2.73438 21.9469 2.79267 22.0052 2.86458 22.0052H7.03125C7.10316 22.0052 7.16146 21.9469 7.16146 21.875V8.33333C7.16146 8.26142 7.10316 8.20312 7.03125 8.20312H2.86458Z" fill="#0F1624"/>
<path d="M9.63542 8.20312C9.5635 8.20312 9.50521 8.26142 9.50521 8.33333V21.875C9.50521 21.9469 9.5635 22.0052 9.63542 22.0052H13.8021C13.874 22.0052 13.9323 21.9469 13.9323 21.875V14.5833C13.9323 14.0653 14.1381 13.5685 14.5043 13.2023C14.8706 12.836 15.3674 12.6302 15.8854 12.6302C16.4034 12.6302 16.9002 12.836 17.2665 13.2023C17.6328 13.5685 17.8385 14.0653 17.8385 14.5833V21.875C17.8385 21.9469 17.8968 22.0052 17.9687 22.0052H22.1354C22.2073 22.0052 22.2656 21.9469 22.2656 21.875V12.8961C22.2656 10.3682 20.0671 8.39062 17.5519 8.61927C16.7762 8.68979 16.0093 8.88261 15.2932 9.18953L13.9323 9.77277V8.33333C13.9323 8.26142 13.874 8.20312 13.8021 8.20312H9.63542Z" fill="#0F1624"/>
</svg>
